<?xml version="1.0" encoding="utf-8"?>
<!-- Generator: Adobe Illustrator 16.0.0, SVG Export Plug-In . SVG Version: 6.00 Build 0)  -->
<!DOCTYPE svg PUBLIC "-//W3C//DTD SVG 1.1//EN" "http://www.w3.org/Graphics/SVG/1.1/DTD/svg11.dtd">
<svg version="1.1" id="Capa_2" xmlns="http://www.w3.org/2000/svg" xmlns:xlink="http://www.w3.org/1999/xlink" x="0px" y="0px"
	 width="143.083px" height="42.167px" viewBox="0 0 143.083 42.167" enable-background="new 0 0 143.083 42.167"
	 xml:space="preserve">
<path fill="none" stroke="#FFFFFF" stroke-width="2.0745" stroke-linecap="round" stroke-linejoin="round" stroke-miterlimit="10" d="
	M40.291,9.328c0,0-0.02-1.375-1.613-2.092c-1.593-0.717-3.008,0.1-3.008,0.1s-1.191-2.092-6.773-2.151
	C22.841,5.12,20.36,9.353,20.36,9.353c-1.594-0.159-5.647-0.583-9.152,2.844c-3.506,3.426-2.072,7.729-2.072,7.729
	s-5.64,3.458-2.552,7.432c2.553,3.286,8.238,1.758,11.073,0.091l-1.969-4.425c2.818,0.516,6.692,0.157,10.38-3.735
	c0,0,4.728,0.471,8.69-0.614l0.712,2.167c4.023,0.598,10.079-1.633,9.999-6.493C45.391,9.487,40.291,9.328,40.291,9.328z"/>
<g>
	<path fill="#FFFFFF" d="M36.262,6.931c0,0,0.021,0.054,0.058,0.147c0.046,0.109,0.096,0.256,0.139,0.42
		c0.054,0.164,0.081,0.368,0.123,0.574c0.015,0.106,0.022,0.217,0.031,0.327c0.008,0.111,0.024,0.218,0.015,0.333
		c-0.017,0.227-0.002,0.441-0.059,0.645c-0.049,0.201-0.062,0.384-0.136,0.532c-0.124,0.287-0.205,0.477-0.205,0.477
		s-0.008-0.202-0.019-0.504c0.006-0.144-0.062-0.317-0.094-0.488c-0.026-0.173-0.128-0.349-0.19-0.518
		c-0.03-0.086-0.086-0.165-0.13-0.244c-0.045-0.077-0.091-0.153-0.135-0.226c-0.106-0.138-0.187-0.269-0.282-0.365
		c-0.089-0.104-0.161-0.175-0.209-0.214c-0.057-0.054-0.09-0.084-0.09-0.084L36.262,6.931z"/>
</g>
<g>
	<path fill="#FFFFFF" d="M41.007,9.312c0,0-0.01,0.039-0.03,0.106c-0.021,0.075-0.052,0.181-0.09,0.309
		c-0.044,0.128-0.081,0.285-0.146,0.431c-0.063,0.145-0.13,0.301-0.197,0.457c-0.118,0.309-0.316,0.588-0.429,0.8
		c-0.122,0.207-0.204,0.345-0.204,0.345s-0.005-0.161-0.013-0.403c-0.019-0.241,0-0.547-0.063-0.855
		c-0.023-0.15-0.047-0.301-0.069-0.442c-0.021-0.139-0.065-0.255-0.09-0.357c-0.03-0.104-0.054-0.189-0.071-0.25
		c-0.021-0.067-0.034-0.105-0.034-0.105L41.007,9.312z"/>
</g>
<g>
	<path fill="#FFFFFF" d="M34.532,17.993c0,0,0.073-0.014,0.2-0.039c0.116-0.02,0.293-0.063,0.511-0.123
		c0.218-0.056,0.467-0.144,0.738-0.231c0.26-0.109,0.557-0.203,0.828-0.341c0.273-0.136,0.562-0.256,0.804-0.416
		c0.243-0.155,0.496-0.276,0.674-0.427c0.378-0.285,0.629-0.476,0.629-0.476s-0.189,0.256-0.475,0.64
		c-0.137,0.203-0.346,0.389-0.548,0.62c-0.2,0.234-0.451,0.437-0.694,0.661c-0.242,0.225-0.512,0.408-0.756,0.604
		c-0.255,0.174-0.493,0.344-0.709,0.473c-0.213,0.13-0.398,0.238-0.542,0.31c-0.131,0.068-0.206,0.105-0.206,0.105L34.532,17.993z"
		/>
</g>
<g>
	<path fill="#FFFFFF" d="M15.58,23.732c0,0-0.078-0.023-0.213-0.067c-0.145-0.045-0.346-0.113-0.571-0.203
		c-0.23-0.081-0.491-0.203-0.769-0.323c-0.139-0.057-0.278-0.137-0.42-0.207c-0.141-0.074-0.286-0.143-0.426-0.223
		c-0.138-0.084-0.275-0.169-0.411-0.253c-0.133-0.085-0.269-0.155-0.387-0.254c-0.12-0.091-0.234-0.179-0.343-0.263
		c-0.107-0.087-0.215-0.153-0.298-0.242c-0.332-0.335-0.553-0.559-0.553-0.559s0.271,0.149,0.677,0.372
		c0.098,0.057,0.223,0.091,0.343,0.141c0.122,0.046,0.25,0.096,0.382,0.146c0.128,0.057,0.277,0.084,0.418,0.126
		c0.143,0.039,0.288,0.078,0.432,0.117c0.146,0.033,0.297,0.057,0.441,0.085c0.147,0.024,0.285,0.06,0.426,0.072
		c0.279,0.033,0.536,0.072,0.759,0.083c0.224,0.018,0.402,0.025,0.522,0.027c0.131,0.003,0.206,0.003,0.206,0.003L15.58,23.732z"/>
</g>
<g>
	<path fill="#FFFFFF" d="M21.008,9.664c0,0-0.031,0.04-0.085,0.111c-0.05,0.062-0.124,0.161-0.211,0.289
		c-0.175,0.25-0.393,0.6-0.589,0.967c-0.089,0.185-0.196,0.37-0.267,0.551c-0.072,0.18-0.154,0.351-0.201,0.502
		c-0.096,0.308-0.159,0.512-0.159,0.512s-0.025-0.215-0.063-0.539c-0.019-0.166-0.014-0.355-0.021-0.564
		c-0.009-0.21,0.014-0.428,0.021-0.654c0.033-0.445,0.093-0.894,0.159-1.228c0.03-0.167,0.061-0.31,0.088-0.415
		c0.023-0.098,0.037-0.152,0.037-0.152L21.008,9.664z"/>
</g>
<g>
	<path fill="#FFFFFF" d="M25.905,19.986c0,0-0.059-0.028-0.164-0.075c-0.121-0.052-0.268-0.131-0.435-0.227
		c-0.335-0.196-0.755-0.484-1.123-0.821c-0.09-0.085-0.18-0.169-0.269-0.253c-0.091-0.079-0.163-0.178-0.24-0.262
		c-0.146-0.179-0.295-0.325-0.388-0.485c-0.196-0.298-0.326-0.497-0.326-0.497s0.192,0.134,0.48,0.335
		c0.134,0.106,0.328,0.187,0.512,0.288c0.096,0.047,0.186,0.105,0.294,0.141c0.103,0.04,0.208,0.08,0.313,0.121
		c0.417,0.158,0.847,0.251,1.163,0.296c0.16,0.021,0.289,0.036,0.364,0.035c0.092,0.003,0.145,0.006,0.145,0.006L25.905,19.986z"/>
</g>
<path fill="none" stroke="#FFFFFF" stroke-width="2.0745" stroke-linecap="round" stroke-linejoin="round" stroke-miterlimit="10" d="
	M35.471,20.842l-0.712-2.167c-3.962,1.085-8.69,0.614-8.69,0.614c-3.688,3.892-7.563,4.251-10.38,3.735l0.967,2.175l1.002,2.25l0,0
	l4.616,10.373l17.003-5.399L35.471,20.842L35.471,20.842z"/>
<line fill="none" stroke="#FFFFFF" stroke-width="3.4575" stroke-miterlimit="10" x1="27.482" y1="36.167" x2="22.398" y2="22.082"/>
<line fill="none" stroke="#FFFFFF" stroke-width="3.4575" stroke-miterlimit="10" x1="33.37" y1="34.145" x2="28.295" y2="19.389"/>
<line fill="none" stroke="#FFFFFF" stroke-width="3.4575" stroke-miterlimit="10" x1="38.629" y1="32.231" x2="34.028" y2="18.855"/>
<line fill="none" stroke="#FFFFFF" stroke-width="3.4575" stroke-miterlimit="10" x1="22.96" y1="37.602" x2="17.299" y2="23.213"/>
<path fill="#FFFFFF" d="M11.188,21.14c0,0,0.777,3.048,4.243,4.004c0,0-1.076,2.142-5.618,2.146c0,0,2.282,3.371,6.704,0.747
	l1.139-0.589l-1.27-3.858C16.387,23.591,14.056,23.551,11.188,21.14z"/>
<g>
	<path fill="#FFFFFF" d="M58.787,12.173h7.891v2.68h-2.6v11.599h-2.757V14.852h-2.533L58.787,12.173L58.787,12.173z"/>
	<path fill="#FFFFFF" d="M73.212,15.619c0.997,0,1.934,0.249,2.809,0.748c0.878,0.499,1.562,1.175,2.053,2.029
		c0.493,0.854,0.739,1.776,0.739,2.766c0,0.997-0.249,1.929-0.743,2.796c-0.496,0.867-1.169,1.545-2.024,2.032
		c-0.854,0.489-1.795,0.733-2.825,0.733c-1.513,0-2.807-0.539-3.877-1.616c-1.07-1.077-1.606-2.386-1.606-3.927
		c0-1.65,0.605-3.025,1.815-4.125C70.613,16.097,71.833,15.619,73.212,15.619z M73.255,18.113c-0.823,0-1.509,0.287-2.057,0.859
		c-0.548,0.573-0.822,1.306-0.822,2.199c0,0.919,0.271,1.664,0.812,2.233c0.541,0.57,1.226,0.854,2.057,0.854
		s1.52-0.289,2.071-0.864c0.551-0.575,0.827-1.317,0.827-2.223c0-0.905-0.271-1.642-0.812-2.208
		C74.79,18.396,74.098,18.113,73.255,18.113z"/>
	<path fill="#FFFFFF" d="M80.356,15.891h2.271v1.33c0.245-0.524,0.573-0.922,0.98-1.194s0.854-0.407,1.34-0.407
		c0.343,0,0.702,0.091,1.078,0.272L85.2,18.172c-0.311-0.156-0.566-0.233-0.766-0.233c-0.409,0-0.753,0.253-1.035,0.757
		c-0.281,0.505-0.421,1.495-0.421,2.97l0.009,0.515v4.271h-2.63V15.891H80.356z"/>
	<path fill="#FFFFFF" d="M87.655,11.998h2.65v3.893h1.572v2.281h-1.572v8.279h-2.65v-8.279h-1.359v-2.281h1.359V11.998z"/>
	<path fill="#FFFFFF" d="M101.089,15.891h2.649v10.561h-2.649v-1.116c-0.517,0.492-1.036,0.846-1.556,1.063
		c-0.521,0.217-1.085,0.325-1.692,0.325c-1.364,0-2.543-0.529-3.539-1.587c-0.996-1.057-1.493-2.373-1.493-3.945
		c0-1.631,0.481-2.967,1.444-4.009s2.133-1.563,3.51-1.563c0.633,0,1.228,0.12,1.784,0.359c0.556,0.24,1.069,0.599,1.542,1.078
		V15.891z M98.303,18.064c-0.818,0-1.499,0.29-2.041,0.869c-0.542,0.58-0.813,1.322-0.813,2.228c0,0.912,0.276,1.663,0.827,2.252
		c0.552,0.59,1.23,0.883,2.037,0.883c0.832,0,1.522-0.29,2.07-0.869c0.548-0.579,0.823-1.338,0.823-2.276
		c0-0.919-0.274-1.663-0.823-2.233C99.835,18.35,99.143,18.064,98.303,18.064z"/>
	<path fill="#FFFFFF" d="M112.882,17.365l-1.64,1.641c-0.667-0.661-1.271-0.99-1.814-0.99c-0.299,0-0.531,0.063-0.7,0.189
		c-0.169,0.126-0.252,0.283-0.252,0.471c0,0.143,0.054,0.274,0.16,0.394s0.37,0.283,0.792,0.49l0.97,0.485
		c1.022,0.505,1.725,1.02,2.106,1.543c0.382,0.524,0.573,1.139,0.573,1.845c0,0.938-0.345,1.721-1.033,2.348
		c-0.69,0.628-1.614,0.941-2.771,0.941c-1.541,0-2.771-0.601-3.69-1.805l1.631-1.776c0.311,0.362,0.675,0.655,1.092,0.878
		c0.418,0.224,0.788,0.335,1.112,0.335c0.35,0,0.63-0.084,0.845-0.252c0.213-0.168,0.319-0.362,0.319-0.583
		c0-0.407-0.385-0.806-1.154-1.195l-0.894-0.446c-1.708-0.861-2.563-1.938-2.563-3.233c0-0.834,0.322-1.548,0.966-2.14
		s1.467-0.888,2.47-0.888c0.687,0,1.331,0.15,1.938,0.451C111.95,16.371,112.462,16.802,112.882,17.365z"/>
	<path fill="#FFFFFF" d="M114.442,12.173h2.918l2.663,5.136l2.652-5.136h2.881l-4.179,8.096v6.183h-2.737v-6.183L114.442,12.173z"/>
	<path fill="#FFFFFF" d="M135.287,15.891h2.649v10.561h-2.649v-1.116c-0.518,0.492-1.036,0.846-1.557,1.063
		c-0.521,0.217-1.084,0.325-1.692,0.325c-1.362,0-2.543-0.529-3.537-1.587c-0.996-1.057-1.493-2.373-1.493-3.945
		c0-1.631,0.48-2.967,1.444-4.009s2.133-1.563,3.51-1.563c0.634,0,1.228,0.12,1.784,0.359c0.556,0.24,1.069,0.599,1.541,1.078
		V15.891z M132.501,18.064c-0.82,0-1.501,0.29-2.042,0.869c-0.541,0.58-0.812,1.322-0.812,2.228c0,0.912,0.274,1.663,0.826,2.252
		c0.551,0.59,1.229,0.883,2.036,0.883c0.832,0,1.521-0.29,2.07-0.869c0.548-0.579,0.821-1.338,0.821-2.276
		c0-0.919-0.273-1.663-0.821-2.233C134.033,18.35,133.34,18.064,132.501,18.064z"/>
</g>
</svg>
