<?xml version="1.0" encoding="utf-8"?>
<!-- Generator: Adobe Illustrator 16.0.0, SVG Export Plug-In . SVG Version: 6.00 Build 0)  -->
<!DOCTYPE svg PUBLIC "-//W3C//DTD SVG 1.1//EN" "http://www.w3.org/Graphics/SVG/1.1/DTD/svg11.dtd">
<svg version="1.1" id="Capa_2" xmlns="http://www.w3.org/2000/svg" xmlns:xlink="http://www.w3.org/1999/xlink" x="0px" y="0px"
	 width="101px" height="81px" viewBox="0 0 101 81" enable-background="new 0 0 101 81" xml:space="preserve">
<path fill="none" stroke="#CD1829" stroke-width="3" stroke-linecap="round" stroke-linejoin="round" stroke-miterlimit="10" d="
	M80.5,16.167c0,0-0.042-2.875-3.375-4.375S70.833,12,70.833,12s-2.49-4.375-14.167-4.5C44,7.364,38.813,16.219,38.813,16.219
	C35.479,15.885,27,15,19.667,22.167s-4.333,16.167-4.333,16.167S3.537,45.566,9.995,53.878c5.339,6.872,17.23,3.679,23.162,0.19
	l-4.12-9.256c5.895,1.08,13.999,0.328,21.713-7.813c0,0,9.889,0.985,18.178-1.285l1.49,4.533
	c8.418,1.249,21.082-3.415,20.916-13.582S80.5,16.167,80.5,16.167z"/>
<g>
	<path fill="#CD1829" d="M72.072,11.153c0,0,0.044,0.112,0.121,0.307c0.098,0.228,0.201,0.535,0.291,0.878
		c0.113,0.344,0.17,0.77,0.258,1.2c0.029,0.222,0.044,0.454,0.064,0.684c0.016,0.231,0.051,0.457,0.029,0.696
		c-0.036,0.474-0.003,0.923-0.122,1.349c-0.106,0.42-0.131,0.803-0.284,1.111C72.171,17.977,72,18.375,72,18.375
		s-0.016-0.422-0.037-1.055c0.012-0.302-0.13-0.662-0.197-1.021c-0.056-0.362-0.269-0.729-0.399-1.083
		c-0.062-0.179-0.181-0.346-0.272-0.511c-0.096-0.161-0.189-0.319-0.281-0.472c-0.224-0.288-0.394-0.563-0.592-0.764
		c-0.185-0.219-0.336-0.367-0.436-0.447c-0.12-0.112-0.189-0.176-0.189-0.176L72.072,11.153z"/>
</g>
<g>
	<path fill="#CD1829" d="M82,16.132c0,0-0.021,0.081-0.063,0.223c-0.045,0.156-0.11,0.378-0.188,0.645
		c-0.091,0.269-0.169,0.595-0.306,0.901c-0.131,0.304-0.271,0.629-0.411,0.954c-0.248,0.646-0.661,1.231-0.898,1.674
		c-0.255,0.433-0.425,0.721-0.425,0.721s-0.012-0.337-0.027-0.843c-0.037-0.503,0.002-1.144-0.131-1.789
		c-0.05-0.314-0.1-0.629-0.146-0.924c-0.043-0.292-0.135-0.534-0.187-0.748c-0.062-0.217-0.112-0.397-0.149-0.524
		c-0.043-0.14-0.068-0.22-0.068-0.22L82,16.132z"/>
</g>
<g>
	<path fill="#CD1829" d="M68.454,34.292c0,0,0.153-0.03,0.419-0.083c0.242-0.042,0.613-0.133,1.07-0.257
		c0.455-0.115,0.975-0.3,1.543-0.483c0.543-0.228,1.164-0.424,1.731-0.713c0.57-0.285,1.177-0.537,1.681-0.869
		c0.509-0.324,1.039-0.578,1.412-0.892C77.1,30.399,77.625,30,77.625,30s-0.396,0.535-0.994,1.338
		c-0.285,0.426-0.723,0.815-1.146,1.296c-0.418,0.489-0.944,0.914-1.451,1.381c-0.506,0.471-1.072,0.854-1.582,1.263
		c-0.535,0.364-1.032,0.72-1.485,0.989c-0.444,0.273-0.833,0.498-1.133,0.648c-0.274,0.142-0.431,0.222-0.431,0.222L68.454,34.292z"
		/>
</g>
<g>
	<path fill="#CD1829" d="M28.811,46.296c0,0-0.162-0.051-0.445-0.141c-0.303-0.095-0.723-0.236-1.195-0.423
		c-0.483-0.17-1.027-0.424-1.608-0.674c-0.292-0.119-0.581-0.289-0.879-0.435c-0.295-0.153-0.598-0.299-0.891-0.465
		c-0.288-0.177-0.576-0.354-0.859-0.528c-0.278-0.18-0.563-0.326-0.809-0.531c-0.25-0.191-0.491-0.377-0.719-0.552
		c-0.222-0.182-0.449-0.319-0.623-0.506c-0.694-0.701-1.156-1.168-1.156-1.168s0.566,0.312,1.417,0.778
		c0.203,0.121,0.465,0.19,0.716,0.296c0.254,0.098,0.522,0.2,0.8,0.306c0.268,0.118,0.579,0.178,0.876,0.264
		c0.298,0.08,0.602,0.162,0.905,0.244c0.307,0.07,0.621,0.119,0.923,0.178c0.306,0.052,0.596,0.125,0.891,0.153
		c0.585,0.068,1.121,0.15,1.588,0.173c0.469,0.041,0.841,0.053,1.094,0.057c0.273,0.005,0.429,0.007,0.429,0.007L28.811,46.296z"/>
</g>
<g>
	<path fill="#CD1829" d="M40.165,16.868c0,0-0.065,0.084-0.178,0.232c-0.106,0.131-0.258,0.337-0.441,0.604
		c-0.368,0.523-0.823,1.255-1.234,2.022c-0.186,0.387-0.411,0.775-0.559,1.153c-0.151,0.378-0.321,0.735-0.42,1.05
		C37.133,22.572,37,23,37,23s-0.053-0.451-0.133-1.128c-0.039-0.345-0.029-0.742-0.045-1.18c-0.019-0.439,0.029-0.895,0.044-1.367
		c0.068-0.932,0.196-1.868,0.333-2.569c0.063-0.348,0.128-0.648,0.185-0.868c0.049-0.203,0.077-0.318,0.077-0.318L40.165,16.868z"/>
</g>
<g>
	<path fill="#CD1829" d="M50.409,38.461c0,0-0.125-0.057-0.343-0.157c-0.252-0.108-0.559-0.274-0.908-0.474
		c-0.702-0.41-1.58-1.012-2.348-1.718c-0.189-0.177-0.377-0.354-0.563-0.529c-0.19-0.164-0.342-0.372-0.502-0.549
		c-0.306-0.374-0.618-0.679-0.812-1.013c-0.41-0.624-0.683-1.039-0.683-1.039s0.402,0.28,1.006,0.7
		c0.28,0.222,0.684,0.39,1.071,0.603c0.201,0.098,0.389,0.22,0.614,0.295c0.216,0.083,0.435,0.168,0.654,0.253
		c0.872,0.33,1.773,0.525,2.433,0.62c0.335,0.045,0.603,0.074,0.761,0.072c0.192,0.008,0.302,0.013,0.302,0.013L50.409,38.461z"/>
</g>
<path fill="none" stroke="#CD1829" stroke-width="3" stroke-linecap="round" stroke-linejoin="round" stroke-miterlimit="10" d="
	M70.418,40.249l-1.49-4.533C60.639,37.985,50.75,37,50.75,37c-7.714,8.141-15.818,8.893-21.713,7.813l2.024,4.549l2.095,4.707l0,0
	l9.655,21.697L78.377,64.47L70.418,40.249L70.418,40.249z"/>
<line fill="none" stroke="#CD1829" stroke-width="5" stroke-miterlimit="10" x1="53.708" y1="72.307" x2="43.072" y2="42.844"/>
<line fill="none" stroke="#CD1829" stroke-width="5" stroke-miterlimit="10" x1="66.023" y1="68.076" x2="55.408" y2="37.211"/>
<line fill="none" stroke="#CD1829" stroke-width="5" stroke-miterlimit="10" x1="77.023" y1="64.076" x2="67.398" y2="36.094"/>
<line fill="none" stroke="#CD1829" stroke-width="5" stroke-miterlimit="10" x1="44.25" y1="75.309" x2="32.408" y2="45.211"/>
<path fill="#CD1829" d="M19.625,40.875c0,0,1.625,6.375,8.875,8.375c0,0-2.25,4.48-11.75,4.49c0,0,4.773,7.05,14.023,1.56
	l2.383-1.229L30.5,46C30.5,46,25.625,45.917,19.625,40.875z"/>
</svg>
